<?xml version="1.0" encoding="utf-8"?>
<!-- Generator: Adobe Illustrator 23.0.0, SVG Export Plug-In . SVG Version: 6.00 Build 0)  -->
<svg version="1.1" id="Capa_1" xmlns="http://www.w3.org/2000/svg" xmlns:xlink="http://www.w3.org/1999/xlink" x="0px" y="0px"
	 viewBox="0 0 512 512" style="enable-background:new 0 0 512 512;" xml:space="preserve">
<style type="text/css">
	.st0{fill:#3F3531;}
</style>
<g>
	<path class="st0" d="M504.5,494.5c-18.7,0-34-14.6-35.3-32.9c21.5-10.1,36.4-31.9,36.4-57.2c0-34.8-28.3-63.2-63.2-63.2
		c-16.3,0-31.2,6.2-42.4,16.4l-48.9-84.7c2.6-3.2,6.9-8,11.9-12.8c10.5-10,20.4-15.8,27.6-16.2c2.4-0.1,4.6-1.4,5.9-3.4
		C410.3,219,503.1,22.8,507,14.4c1.7-3.6,0.3-7.9-3.2-9.8c-3.5-1.9-7.9-0.7-10,2.7L342,257.7L190.2,7.3c-2.1-3.4-6.5-4.6-10-2.7
		c-3.5,1.9-4.9,6.2-3.2,9.8c3.9,8.3,96.7,204.6,110.6,226c1.3,2,3.5,3.3,5.9,3.4c7.3,0.4,17.1,6.1,27.6,16.2
		c5.1,4.8,9.3,9.6,11.9,12.8L284,357.6c-11.2-10.2-26.1-16.4-42.4-16.4c-34.8,0-63.2,28.3-63.2,63.2s28.3,63.2,63.2,63.2
		s63.2-28.3,63.2-63.2c0-12.8-3.8-24.7-10.4-34.7l47.6-82.5l47.6,82.5c-6.6,10-10.4,21.9-10.4,34.7c0,34.8,28.3,63.2,63.2,63.2
		c4.2,0,8.3-0.4,12.2-1.2c3.5,24.4,24.5,43.2,49.9,43.2c4.1,0,7.5-3.4,7.5-7.5C512,497.9,508.6,494.5,504.5,494.5z M428.2,144.6
		c-19.1,39.4-35.8,73-42.5,84.8c-3.8,0.7-7.6,2.1-11.2,3.9L428.2,144.6z M298.4,229.4c-6.8-11.8-23.4-45.4-42.5-84.8l53.8,88.7
		C306,231.5,302.2,230.1,298.4,229.4z M241.6,452.5c-26.6,0-48.2-21.6-48.2-48.2c0-26.6,21.6-48.2,48.2-48.2s48.2,21.6,48.2,48.2
		C289.7,430.9,268.1,452.5,241.6,452.5z M394.3,404.4c0-26.6,21.6-48.2,48.2-48.2c26.6,0,48.2,21.6,48.2,48.2
		c0,26.6-21.6,48.2-48.2,48.2C415.9,452.5,394.3,430.9,394.3,404.4z"/>
	<path class="st0" d="M134.8,17.5c4.1,0,7.5-3.4,7.5-7.5s-3.4-7.5-7.5-7.5H35.3C15.8,2.5,0,18.3,0,37.8v399.5
		c0,19.5,15.8,35.3,35.3,35.3h99.5c4.1,0,7.5-3.4,7.5-7.5c0-4.1-3.4-7.5-7.5-7.5h-92v-14.1h92c4.1,0,7.5-3.4,7.5-7.5
		s-3.4-7.5-7.5-7.5h-92V413h92c4.1,0,7.5-3.4,7.5-7.5c0-4.1-3.4-7.5-7.5-7.5h-92v-15.5h92c4.1,0,7.5-3.4,7.5-7.5
		c0-4.1-3.4-7.5-7.5-7.5h-92v-15.5h92c4.1,0,7.5-3.4,7.5-7.5s-3.4-7.5-7.5-7.5h-92v-15.5h92c4.1,0,7.5-3.4,7.5-7.5
		c0-4.1-3.4-7.5-7.5-7.5h-92v-15.5h92c4.1,0,7.5-3.4,7.5-7.5c0-4.1-3.4-7.5-7.5-7.5h-92v-15.5h92c4.1,0,7.5-3.4,7.5-7.5
		s-3.4-7.5-7.5-7.5h-92v-15.5h92c4.1,0,7.5-3.4,7.5-7.5s-3.4-7.5-7.5-7.5h-92v-15.5h92c4.1,0,7.5-3.4,7.5-7.5s-3.4-7.5-7.5-7.5h-92
		v-15.5h92c4.1,0,7.5-3.4,7.5-7.5s-3.4-7.5-7.5-7.5h-92v-15.5h92c4.1,0,7.5-3.4,7.5-7.5s-3.4-7.5-7.5-7.5h-92v-15.5h92
		c4.1,0,7.5-3.4,7.5-7.5c0-4.1-3.4-7.5-7.5-7.5h-92V77.1h92c4.1,0,7.5-3.4,7.5-7.5s-3.4-7.5-7.5-7.5h-92V46.6h92
		c4.1,0,7.5-3.4,7.5-7.5s-3.4-7.5-7.5-7.5h-92V17.5H134.8z M15,437.3V37.8c0-8.5,5.3-15.9,12.8-18.8v437.2
		C20.3,453.1,15,445.8,15,437.3z"/>
</g>
</svg>
