<?xml version="1.0" encoding="utf-8"?>
<!-- Generator: Adobe Illustrator 22.1.0, SVG Export Plug-In . SVG Version: 6.00 Build 0)  -->
<svg version="1.1" id="Capa_1" xmlns="http://www.w3.org/2000/svg" xmlns:xlink="http://www.w3.org/1999/xlink" x="0px" y="0px"
	 viewBox="0 0 512 512" style="enable-background:new 0 0 512 512;" xml:space="preserve">
<style type="text/css">
	.st0{fill:#3F3531;}
</style>
<path class="st0" d="M494,14.9c-10,0-18,8.1-18,18c0,0.2-0.2,19.9-6.5,38.9c-2.3,7-5,12.5-7.8,16.8c1-6.7,1.1-11.2,1.1-12.3
	c0-7.3-4.3-13.9-11.1-16.7c-6.7-2.8-14.5-1.3-19.7,3.9c-0.1,0.1-13,11.9-38.7,11.9c-11.7,0-21.1-6.2-32.9-14.1
	C346.2,51.7,330.1,41,307.5,41c-23.7,0-40.9,6.9-51.5,13.1C245.4,47.9,228.2,41,204.5,41c-22.6,0-38.7,10.7-52.9,20.2
	c-11.8,7.9-21.2,14.1-32.9,14.1c-24.7,0-37.4-10.7-38.8-12c-5.1-5.3-12.7-6.9-19.5-4.1c-6.9,2.7-11.2,9.7-11.2,17.1
	c0,1.1,0.1,5.5,1.1,12.1c-13.9-20.8-14.2-55-14.2-55.5c0-10-8.1-18-18-18c-10,0-18,8.1-18,18v178.5c0,11.7,0,39,20.7,43.9
	c4.5,1.1,8.6,0.7,12.4-0.6c5.6,42.7,20.7,107.1,61.5,147.9c5.2,5.2,12.9,6.7,19.6,3.9c2.6-1.1,4.9-2.7,6.6-4.8
	c0.4,0.6,0.8,1.2,1.2,1.8c31.7,47.6,76.5,79.7,129.6,93c1.4,0.4,2.9,0.5,4.4,0.5c1.5,0,2.9-0.2,4.4-0.5
	c53.1-13.3,97.9-45.4,129.6-93c0.4-0.6,0.8-1.2,1.2-1.8c1.8,2,4,3.7,6.6,4.8c6.7,2.8,14.5,1.2,19.6-3.9
	c40.8-40.8,55.9-105.3,61.5-147.9c3.7,1.3,7.9,1.6,12.4,0.6c20.7-4.9,20.7-32.2,20.7-43.9V32.9C512,22.9,503.9,14.9,494,14.9z
	 M94.6,108.9c7.1,1.6,15.1,2.5,24.1,2.5c22.6,0,38.7-10.7,52.9-20.2c11.8-7.9,21.2-14.1,32.9-14.1c24.7,0,37.4,10.7,38.8,12
	c3.4,3.6,7.7,5.6,12.7,5.6s9.3-2,12.7-5.6c1.4-1.3,14.2-12,38.8-12c11.7,0,21.1,6.2,32.9,14.1c14.2,9.5,30.3,20.2,52.9,20.2
	c9,0,17.1-1,24.2-2.6c-9.9,17.8-30.6,36.2-73.5,36.2c-5.6,0-11.5-0.3-17.6-0.9c-14.8-1.5-34.6-6.1-57.7-29.1
	c-3.5-3.5-8.1-5.3-12.7-5.3c-4.6,0-9.2,1.8-12.7,5.3c-23,23-42.9,27.7-57.7,29.1c-6.1,0.6-12,0.9-17.6,0.9c0,0,0,0,0,0
	C133.9,145,108.1,131,94.6,108.9z M475.9,197.7c-4.3-3.6-10.1-5.2-15.8-3.8c-8.1,1.9-13.9,9.2-13.9,17.5c0,0.8-0.5,64.1-23.5,118.1
	c-0.4-8.7-7.1-15.9-15.8-17c-9-1.1-17.5,4.7-19.7,13.5c-0.3,1.1-27.6,105.9-131.2,134.5c-42.5-11.7-77.2-37.2-103.3-75.9
	c-20.6-30.6-27.9-58.4-27.9-58.6c-2.2-8.8-10.7-14.6-19.7-13.5c-8.7,1.1-15.4,8.3-15.8,17c-23-54-23.5-117.2-23.5-118.1
	c0-8.4-5.7-15.6-13.9-17.5c-5.7-1.4-11.6,0.2-15.9,3.8V126c9.6,7.8,21.4,12.9,36,14C88.2,160.7,117,181,168,181c0,0,0,0,0,0
	c6.8,0,13.9-0.4,21.1-1.1c25-2.5,46.6-11.5,66.9-28c20.2,16.5,41.8,25.5,66.9,28c7.3,0.7,14.4,1.1,21.1,1.1
	c51,0,79.8-20.4,95.9-41.1c14.6-1,26.4-6.2,36-14V197.7z"/>
</svg>
