<?xml version="1.0" encoding="utf-8"?>
<!-- Generator: Adobe Illustrator 22.1.0, SVG Export Plug-In . SVG Version: 6.00 Build 0)  -->
<svg version="1.1" id="Layer_1" xmlns="http://www.w3.org/2000/svg" xmlns:xlink="http://www.w3.org/1999/xlink" x="0px" y="0px"
	 viewBox="0 0 512 512" style="enable-background:new 0 0 512 512;" xml:space="preserve">
<style type="text/css">
	.st0{fill:#3F3531;}
</style>
<g>
	<path class="st0" d="M503.9,39.8c-128.4-16.2-258.6-17.6-387.3-4c-1.6-2.4-3.4-4.7-5.3-6.8C100.1,16.7,84.2,9.7,67.6,9.7
		c-30.7,0-56,23.1-59,53.6C-2.9,184-2.9,328,8.6,448.7c2.9,30.6,28.3,53.6,59,53.6c16.6,0,32.5-7,43.7-19.3
		c11.2-12.2,16.8-28.7,15.3-45.3c-9.6-106.4-10.2-232.1-1.9-341.1c23.9-1.7,45.8-2.7,70.2-3.1l15.3,41.1c1.4,3.8,5.1,6.2,9.1,6
		c94-4.2,189-0.3,282.3,11.5c0.4,0,0.8,0.1,1.2,0.1c2.2,0,4.4-0.8,6.1-2.3c2-1.8,3.1-4.3,3.1-6.9V48.9
		C512,44.3,508.5,40.3,503.9,39.8L503.9,39.8z M102,440c0.9,9.8-2.3,19.2-8.9,26.4c-6.6,7.2-15.7,11.2-25.5,11.2
		c-17.9,0-32.7-13.5-34.4-31.3c-11.4-119.2-11.4-261.5,0-380.7c1.7-17.8,16.5-31.3,34.4-31.3c9.8,0,18.9,4,25.5,11.2
		c6.6,7.2,9.8,16.6,8.9,26.4C91.6,187.2,91.6,324.8,102,440L102,440z M201.2,75c-26.5,0.4-49.7,1.3-75,3c0.1-1.3,0.2-2.6,0.3-3.9
		c0.6-7,0-14-1.8-20.7c122.5-12.4,246.5-11.2,368.8,3.6v49.8C400.3,90,250.2,95.7,216,97.3l-6-16.2C208.6,77.4,205.1,75,201.2,75z
		 M225.2,122l-2.4-6.5c42.9-1.8,185.4-6,270.7,10.2v6.9C404.7,122,314.5,118.4,225.2,122z"/>
	<path class="st0" d="M66,84.2c3.3,0,6.4-1.3,8.7-3.6c2.3-2.3,3.6-5.5,3.6-8.7c0-3.2-1.3-6.4-3.6-8.7c-2.3-2.3-5.5-3.6-8.7-3.6
		c-3.2,0-6.4,1.3-8.7,3.6c-2.3,2.3-3.6,5.5-3.6,8.7c0,3.3,1.3,6.4,3.6,8.7C59.5,82.9,62.7,84.2,66,84.2z"/>
	<path class="st0" d="M81.3,120.7c-3.6-3.6-9.5-3.6-13.1,0l-6.9,6.9l-6.9-6.9c-3.6-3.6-9.5-3.6-13.1,0c-3.6,3.6-3.6,9.5,0,13.1
		l6.9,6.9l-6.9,6.9c-3.6,3.6-3.6,9.5,0,13.1c1.8,1.8,4.2,2.7,6.5,2.7c2.4,0,4.7-0.9,6.5-2.7l6.9-6.9l6.9,6.9
		c1.8,1.8,4.2,2.7,6.5,2.7s4.7-0.9,6.5-2.7c3.6-3.6,3.6-9.5,0-13.1l-6.9-6.9l6.9-6.9C84.9,130.1,84.9,124.3,81.3,120.7z"/>
	<path class="st0" d="M81.3,351.4c-3.6-3.6-9.5-3.6-13.1,0l-6.9,6.9l-6.9-6.9c-3.6-3.6-9.5-3.6-13.1,0c-3.6,3.6-3.6,9.5,0,13.1
		l6.9,6.9l-6.9,6.9c-3.6,3.6-3.6,9.5,0,13.1c1.8,1.8,4.2,2.7,6.5,2.7c2.4,0,4.7-0.9,6.5-2.7l6.9-6.9l6.9,6.9
		c1.8,1.8,4.2,2.7,6.5,2.7s4.7-0.9,6.5-2.7c3.6-3.6,3.6-9.5,0-13.1l-6.9-6.9l6.9-6.9C84.9,360.9,84.9,355,81.3,351.4z"/>
</g>
</svg>
